%TF.GenerationSoftware,KiCad,Pcbnew,10.0.3*%
%TF.CreationDate,2026-08-18T19:11:06+05:30*%
%TF.ProjectId,AG328X,41473332-3858-42e6-9b69-6361645f7063,rev?*%
%TF.SameCoordinates,Original*%
%TF.FileFunction,Paste,Top*%
%TF.FilePolarity,Positive*%
%FSLAX46Y46*%
G04 Gerber Fmt 4.6, Leading zero omitted, Abs format (unit mm)*
G04 Created by KiCad (PCBNEW 10.0.3) date 2026-08-18 19:11:06*
%MOMM*%
%LPD*%
G01*
G04 APERTURE LIST*
G04 Aperture macros list*
%AMRoundRect*
0 Rectangle with rounded corners*
0 $1 Rounding radius*
0 $2 $3 $4 $5 $6 $7 $8 $9 X,Y pos of 4 corners*
0 Add a 4 corners polygon primitive as box body*
4,1,4,$2,$3,$4,$5,$6,$7,$8,$9,$2,$3,0*
0 Add four circle primitives for the rounded corners*
1,1,$1+$1,$2,$3*
1,1,$1+$1,$4,$5*
1,1,$1+$1,$6,$7*
1,1,$1+$1,$8,$9*
0 Add four rect primitives between the rounded corners*
20,1,$1+$1,$2,$3,$4,$5,0*
20,1,$1+$1,$4,$5,$6,$7,0*
20,1,$1+$1,$6,$7,$8,$9,0*
20,1,$1+$1,$8,$9,$2,$3,0*%
G04 Aperture macros list end*
%ADD10RoundRect,0.140000X-0.170000X0.140000X-0.170000X-0.140000X0.170000X-0.140000X0.170000X0.140000X0*%
%ADD11RoundRect,0.135000X-0.135000X-0.185000X0.135000X-0.185000X0.135000X0.185000X-0.135000X0.185000X0*%
%ADD12RoundRect,0.250000X1.000000X0.650000X-1.000000X0.650000X-1.000000X-0.650000X1.000000X-0.650000X0*%
%ADD13R,1.140000X1.470000*%
%ADD14RoundRect,0.135000X-0.185000X0.135000X-0.185000X-0.135000X0.185000X-0.135000X0.185000X0.135000X0*%
%ADD15R,1.500000X3.200000*%
%ADD16R,1.000000X1.250000*%
%ADD17RoundRect,0.147500X-0.172500X0.147500X-0.172500X-0.147500X0.172500X-0.147500X0.172500X0.147500X0*%
%ADD18RoundRect,0.135000X0.185000X-0.135000X0.185000X0.135000X-0.185000X0.135000X-0.185000X-0.135000X0*%
%ADD19R,1.900000X0.600000*%
%ADD20R,1.900000X0.400000*%
%ADD21R,1.150000X0.600000*%
%ADD22R,1.150000X0.300000*%
%ADD23RoundRect,0.147500X0.172500X-0.147500X0.172500X0.147500X-0.172500X0.147500X-0.172500X-0.147500X0*%
%ADD24RoundRect,0.150000X-0.587500X-0.150000X0.587500X-0.150000X0.587500X0.150000X-0.587500X0.150000X0*%
%ADD25RoundRect,0.140000X0.140000X0.170000X-0.140000X0.170000X-0.140000X-0.170000X0.140000X-0.170000X0*%
%ADD26RoundRect,0.218750X-0.218750X-0.256250X0.218750X-0.256250X0.218750X0.256250X-0.218750X0.256250X0*%
%ADD27RoundRect,0.063000X-0.767000X0.567000X-0.767000X-0.567000X0.767000X-0.567000X0.767000X0.567000X0*%
%ADD28RoundRect,0.140000X0.170000X-0.140000X0.170000X0.140000X-0.170000X0.140000X-0.170000X-0.140000X0*%
%ADD29RoundRect,0.108750X-0.326250X-0.401250X0.326250X-0.401250X0.326250X0.401250X-0.326250X0.401250X0*%
%ADD30RoundRect,0.225000X0.250000X-0.225000X0.250000X0.225000X-0.250000X0.225000X-0.250000X-0.225000X0*%
%ADD31R,2.209800X0.609600*%
%ADD32RoundRect,0.135000X0.135000X0.185000X-0.135000X0.185000X-0.135000X-0.185000X0.135000X-0.185000X0*%
%ADD33RoundRect,0.140000X-0.140000X-0.170000X0.140000X-0.170000X0.140000X0.170000X-0.140000X0.170000X0*%
%ADD34RoundRect,0.137500X0.600000X0.137500X-0.600000X0.137500X-0.600000X-0.137500X0.600000X-0.137500X0*%
%ADD35RoundRect,0.137500X0.137500X0.600000X-0.137500X0.600000X-0.137500X-0.600000X0.137500X-0.600000X0*%
%ADD36RoundRect,0.225000X-0.250000X0.225000X-0.250000X-0.225000X0.250000X-0.225000X0.250000X0.225000X0*%
%ADD37RoundRect,0.147500X-0.457500X-0.147500X0.457500X-0.147500X0.457500X0.147500X-0.457500X0.147500X0*%
G04 APERTURE END LIST*
D10*
%TO.C,C17*%
X104299000Y-69580000D03*
X104299000Y-70540000D03*
%TD*%
D11*
%TO.C,R20*%
X119119000Y-58100000D03*
X120139000Y-58100000D03*
%TD*%
D12*
%TO.C,D8*%
X99419000Y-52340000D03*
X95419000Y-52340000D03*
%TD*%
D13*
%TO.C,FL1*%
X101979000Y-54790000D03*
X103759000Y-54790000D03*
%TD*%
D14*
%TO.C,R5*%
X103742400Y-63334700D03*
X103742400Y-64354700D03*
%TD*%
D15*
%TO.C,F1*%
X99369000Y-66590000D03*
X95169000Y-66590000D03*
%TD*%
D16*
%TO.C,SW1*%
X124899000Y-49415000D03*
X124899000Y-57165000D03*
%TD*%
D17*
%TO.C,D7*%
X102769000Y-63360000D03*
X102769000Y-64330000D03*
%TD*%
D18*
%TO.C,R19*%
X111629000Y-59750000D03*
X111629000Y-58730000D03*
%TD*%
D14*
%TO.C,R4*%
X114499000Y-63451200D03*
X114499000Y-64471200D03*
%TD*%
%TO.C,R9*%
X113559000Y-58730000D03*
X113559000Y-59750000D03*
%TD*%
D19*
%TO.C,Y1*%
X118699000Y-50102500D03*
D20*
X118699000Y-51052500D03*
D19*
X118699000Y-52002500D03*
%TD*%
D14*
%TO.C,R8*%
X112589000Y-58730000D03*
X112589000Y-59750000D03*
%TD*%
D21*
%TO.C,J2*%
X99934000Y-56100000D03*
X99934000Y-56900000D03*
D22*
X99934000Y-58050000D03*
X99934000Y-59050000D03*
X99934000Y-59550000D03*
X99934000Y-60550000D03*
D21*
X99934000Y-62500000D03*
X99934000Y-61700000D03*
D22*
X99934000Y-61050000D03*
X99934000Y-60050000D03*
X99934000Y-58550000D03*
X99934000Y-57550000D03*
%TD*%
D23*
%TO.C,D3*%
X115439000Y-59725000D03*
X115439000Y-58755000D03*
%TD*%
D18*
%TO.C,R2*%
X116699000Y-50650000D03*
X116699000Y-49630000D03*
%TD*%
D24*
%TO.C,Q1*%
X112311500Y-68366300D03*
X112311500Y-70266300D03*
X114186500Y-69316300D03*
%TD*%
D25*
%TO.C,C2*%
X104934000Y-50210000D03*
X103974000Y-50210000D03*
%TD*%
D17*
%TO.C,D5*%
X106769000Y-58770000D03*
X106769000Y-59740000D03*
%TD*%
D26*
%TO.C,L1*%
X103094000Y-51400000D03*
X104669000Y-51400000D03*
%TD*%
D27*
%TO.C,D1*%
X124917200Y-62531200D03*
X124917200Y-59131200D03*
%TD*%
D14*
%TO.C,R7*%
X105829200Y-58745400D03*
X105829200Y-59765400D03*
%TD*%
D28*
%TO.C,C3*%
X116699000Y-53030000D03*
X116699000Y-52070000D03*
%TD*%
D29*
%TO.C,RV2*%
X101869000Y-60560000D03*
X103429000Y-60560000D03*
%TD*%
D30*
%TO.C,C12*%
X110123800Y-69890000D03*
X110123800Y-68340000D03*
%TD*%
D31*
%TO.C,U5*%
X111315200Y-65965800D03*
X111315200Y-64695800D03*
X111315200Y-63425800D03*
X111315200Y-62155800D03*
X106082800Y-62155800D03*
X106082800Y-63425800D03*
X106082800Y-64695800D03*
X106082800Y-65965800D03*
%TD*%
D10*
%TO.C,C16*%
X101369000Y-65000000D03*
X101369000Y-65960000D03*
%TD*%
D18*
%TO.C,R1*%
X113349000Y-64471200D03*
X113349000Y-63451200D03*
%TD*%
D23*
%TO.C,D4*%
X116389000Y-59725000D03*
X116389000Y-58755000D03*
%TD*%
D29*
%TO.C,RV1*%
X101869000Y-58060000D03*
X103429000Y-58060000D03*
%TD*%
D32*
%TO.C,R16*%
X102649000Y-61920000D03*
X101629000Y-61920000D03*
%TD*%
%TO.C,R15*%
X102619000Y-56730000D03*
X101599000Y-56730000D03*
%TD*%
D33*
%TO.C,C13*%
X103089000Y-65990000D03*
X104049000Y-65990000D03*
%TD*%
D25*
%TO.C,C1*%
X104929000Y-52590000D03*
X103969000Y-52590000D03*
%TD*%
D11*
%TO.C,R10*%
X119119000Y-57150000D03*
X120139000Y-57150000D03*
%TD*%
D34*
%TO.C,U6*%
X114881500Y-55340000D03*
X114881500Y-54540000D03*
X114881500Y-53740000D03*
X114881500Y-52940000D03*
X114881500Y-52140000D03*
X114881500Y-51340000D03*
X114881500Y-50540000D03*
X114881500Y-49740000D03*
D35*
X113519000Y-48377500D03*
X112719000Y-48377500D03*
X111919000Y-48377500D03*
X111119000Y-48377500D03*
X110319000Y-48377500D03*
X109519000Y-48377500D03*
X108719000Y-48377500D03*
X107919000Y-48377500D03*
D34*
X106556500Y-49740000D03*
X106556500Y-50540000D03*
X106556500Y-51340000D03*
X106556500Y-52140000D03*
X106556500Y-52940000D03*
X106556500Y-53740000D03*
X106556500Y-54540000D03*
X106556500Y-55340000D03*
D35*
X107919000Y-56702500D03*
X108719000Y-56702500D03*
X109519000Y-56702500D03*
X110319000Y-56702500D03*
X111119000Y-56702500D03*
X111919000Y-56702500D03*
X112719000Y-56702500D03*
X113519000Y-56702500D03*
%TD*%
D36*
%TO.C,C18*%
X102935600Y-68733800D03*
X102935600Y-70283800D03*
%TD*%
D37*
%TO.C,U2*%
X105799000Y-68378800D03*
X105799000Y-69328800D03*
X105799000Y-70278800D03*
X108309000Y-70278800D03*
X108309000Y-68378800D03*
%TD*%
M02*
