%TF.GenerationSoftware,KiCad,Pcbnew,10.0.3*%
%TF.CreationDate,2026-08-18T19:11:06+05:30*%
%TF.ProjectId,AG328X,41473332-3858-42e6-9b69-6361645f7063,rev?*%
%TF.SameCoordinates,Original*%
%TF.FileFunction,Soldermask,Bot*%
%TF.FilePolarity,Negative*%
%FSLAX46Y46*%
G04 Gerber Fmt 4.6, Leading zero omitted, Abs format (unit mm)*
G04 Created by KiCad (PCBNEW 10.0.3) date 2026-08-18 19:11:06*
%MOMM*%
%LPD*%
G01*
G04 APERTURE LIST*
G04 Aperture macros list*
%AMRoundRect*
0 Rectangle with rounded corners*
0 $1 Rounding radius*
0 $2 $3 $4 $5 $6 $7 $8 $9 X,Y pos of 4 corners*
0 Add a 4 corners polygon primitive as box body*
4,1,4,$2,$3,$4,$5,$6,$7,$8,$9,$2,$3,0*
0 Add four circle primitives for the rounded corners*
1,1,$1+$1,$2,$3*
1,1,$1+$1,$4,$5*
1,1,$1+$1,$6,$7*
1,1,$1+$1,$8,$9*
0 Add four rect primitives between the rounded corners*
20,1,$1+$1,$2,$3,$4,$5,0*
20,1,$1+$1,$4,$5,$6,$7,0*
20,1,$1+$1,$6,$7,$8,$9,0*
20,1,$1+$1,$8,$9,$2,$3,0*%
%AMFreePoly0*
4,1,17,0.383115,0.874121,0.874121,0.383115,0.889000,0.347194,0.889000,-0.347194,0.874121,-0.383115,0.383115,-0.874121,0.347194,-0.889000,-0.347194,-0.889000,-0.383115,-0.874121,-0.874121,-0.383115,-0.889000,-0.347194,-0.889000,0.347194,-0.874121,0.383115,-0.383115,0.874121,-0.347194,0.889000,0.347194,0.889000,0.383115,0.874121,0.383115,0.874121,$1*%
%AMFreePoly1*
4,1,23,0.500000,-0.750000,0.000000,-0.750000,0.000000,-0.745722,-0.065263,-0.745722,-0.191342,-0.711940,-0.304381,-0.646677,-0.396677,-0.554381,-0.461940,-0.441342,-0.495722,-0.315263,-0.495722,-0.250000,-0.500000,-0.250000,-0.500000,0.250000,-0.495722,0.250000,-0.495722,0.315263,-0.461940,0.441342,-0.396677,0.554381,-0.304381,0.646677,-0.191342,0.711940,-0.065263,0.745722,0.000000,0.745722,
0.000000,0.750000,0.500000,0.750000,0.500000,-0.750000,0.500000,-0.750000,$1*%
%AMFreePoly2*
4,1,23,0.000000,0.745722,0.065263,0.745722,0.191342,0.711940,0.304381,0.646677,0.396677,0.554381,0.461940,0.441342,0.495722,0.315263,0.495722,0.250000,0.500000,0.250000,0.500000,-0.250000,0.495722,-0.250000,0.495722,-0.315263,0.461940,-0.441342,0.396677,-0.554381,0.304381,-0.646677,0.191342,-0.711940,0.065263,-0.745722,0.000000,-0.745722,0.000000,-0.750000,-0.500000,-0.750000,
-0.500000,0.750000,0.000000,0.750000,0.000000,0.745722,0.000000,0.745722,$1*%
G04 Aperture macros list end*
%ADD10RoundRect,0.250000X0.725000X-0.600000X0.725000X0.600000X-0.725000X0.600000X-0.725000X-0.600000X0*%
%ADD11O,1.950000X1.700000*%
%ADD12C,0.650000*%
%ADD13O,2.304000X1.204000*%
%ADD14O,2.004000X1.204000*%
%ADD15R,1.350000X1.350000*%
%ADD16C,1.350000*%
%ADD17FreePoly0,180.000000*%
%ADD18FreePoly1,270.000000*%
%ADD19FreePoly2,270.000000*%
%ADD20C,1.000000*%
%ADD21RoundRect,0.140000X-0.170000X0.140000X-0.170000X-0.140000X0.170000X-0.140000X0.170000X0.140000X0*%
%ADD22RoundRect,0.140000X0.170000X-0.140000X0.170000X0.140000X-0.170000X0.140000X-0.170000X-0.140000X0*%
%ADD23RoundRect,0.135000X0.185000X-0.135000X0.185000X0.135000X-0.185000X0.135000X-0.185000X-0.135000X0*%
%ADD24RoundRect,0.250000X0.650000X-0.325000X0.650000X0.325000X-0.650000X0.325000X-0.650000X-0.325000X0*%
%ADD25RoundRect,0.250000X-0.900000X1.500000X-0.900000X-1.500000X0.900000X-1.500000X0.900000X1.500000X0*%
%ADD26RoundRect,0.225000X-0.250000X0.225000X-0.250000X-0.225000X0.250000X-0.225000X0.250000X0.225000X0*%
%ADD27RoundRect,0.135000X-0.185000X0.135000X-0.185000X-0.135000X0.185000X-0.135000X0.185000X0.135000X0*%
%ADD28RoundRect,0.218750X-0.218750X-0.256250X0.218750X-0.256250X0.218750X0.256250X-0.218750X0.256250X0*%
%ADD29RoundRect,0.135000X-0.135000X-0.185000X0.135000X-0.185000X0.135000X0.185000X-0.135000X0.185000X0*%
%ADD30R,2.700000X2.050000*%
%ADD31RoundRect,0.140000X0.140000X0.170000X-0.140000X0.170000X-0.140000X-0.170000X0.140000X-0.170000X0*%
%ADD32C,2.200000*%
%ADD33RoundRect,0.225000X-0.225000X-0.250000X0.225000X-0.250000X0.225000X0.250000X-0.225000X0.250000X0*%
%ADD34RoundRect,0.135000X0.135000X0.185000X-0.135000X0.185000X-0.135000X-0.185000X0.135000X-0.185000X0*%
%ADD35RoundRect,0.099250X-0.297750X0.627750X-0.297750X-0.627750X0.297750X-0.627750X0.297750X0.627750X0*%
%ADD36RoundRect,0.137500X0.600000X0.137500X-0.600000X0.137500X-0.600000X-0.137500X0.600000X-0.137500X0*%
%ADD37RoundRect,0.137500X0.137500X0.600000X-0.137500X0.600000X-0.137500X-0.600000X0.137500X-0.600000X0*%
%ADD38RoundRect,0.250000X-0.650000X1.000000X-0.650000X-1.000000X0.650000X-1.000000X0.650000X1.000000X0*%
G04 APERTURE END LIST*
%TO.C,JP4*%
G36*
X102939000Y-58130000D02*
G01*
X104439000Y-58130000D01*
X104439000Y-58430000D01*
X102939000Y-58430000D01*
X102939000Y-58130000D01*
G37*
%TO.C,JP3*%
G36*
X103009000Y-54820000D02*
G01*
X104509000Y-54820000D01*
X104509000Y-55120000D01*
X103009000Y-55120000D01*
X103009000Y-54820000D01*
G37*
%TD*%
D10*
%TO.C,J4*%
X123729000Y-69020000D03*
D11*
X123729000Y-66520000D03*
%TD*%
D12*
%TO.C,J2*%
X98859000Y-56410000D03*
X98859000Y-62190000D03*
D13*
X99359000Y-54980000D03*
X99359000Y-63620000D03*
D14*
X95179000Y-54980000D03*
X95179000Y-63620000D03*
%TD*%
D15*
%TO.C,J11*%
X99740000Y-74740000D03*
D16*
X101740000Y-74740000D03*
X103740000Y-74740000D03*
X105740000Y-74740000D03*
X107740000Y-74740000D03*
X109740000Y-74740000D03*
X111740000Y-74740000D03*
X113740000Y-74740000D03*
X115740000Y-74740000D03*
X117740000Y-74740000D03*
X119740000Y-74740000D03*
X121740000Y-74740000D03*
X123740000Y-74740000D03*
X125740000Y-74740000D03*
%TD*%
D15*
%TO.C,J12*%
X95430000Y-44260000D03*
D16*
X97430000Y-44260000D03*
X99430000Y-44260000D03*
X101430000Y-44260000D03*
X103430000Y-44260000D03*
X105430000Y-44260000D03*
X107430000Y-44260000D03*
X109430000Y-44260000D03*
X111430000Y-44260000D03*
X113430000Y-44260000D03*
X115430000Y-44260000D03*
X117430000Y-44260000D03*
X119430000Y-44260000D03*
X121430000Y-44260000D03*
%TD*%
D15*
%TO.C,J1*%
X95440000Y-48560000D03*
D16*
X97440000Y-48560000D03*
X99440000Y-48560000D03*
X101440000Y-48560000D03*
%TD*%
D17*
%TO.C,Y2*%
X119949000Y-55210000D03*
X119949000Y-60290000D03*
%TD*%
D18*
%TO.C,JP4*%
X103689000Y-57630000D03*
D19*
X103689000Y-58930000D03*
%TD*%
D20*
%TO.C,TP8*%
X101231500Y-60490000D03*
%TD*%
D21*
%TO.C,C4*%
X116391500Y-52480000D03*
X116391500Y-53440000D03*
%TD*%
D22*
%TO.C,C5*%
X116391500Y-59150000D03*
X116391500Y-58190000D03*
%TD*%
D23*
%TO.C,R18*%
X111916700Y-51432000D03*
X111916700Y-50412000D03*
%TD*%
D24*
%TO.C,C10*%
X100685600Y-70256400D03*
X100685600Y-67306400D03*
%TD*%
D25*
%TO.C,D9*%
X116090000Y-65860000D03*
X116090000Y-71260000D03*
%TD*%
D23*
%TO.C,R11*%
X109150000Y-65960000D03*
X109150000Y-64940000D03*
%TD*%
D26*
%TO.C,C9*%
X110540000Y-69860000D03*
X110540000Y-71410000D03*
%TD*%
D20*
%TO.C,TP7*%
X105968800Y-62788800D03*
%TD*%
D27*
%TO.C,R3*%
X116391500Y-54380000D03*
X116391500Y-55400000D03*
%TD*%
D21*
%TO.C,C14*%
X109150000Y-69600000D03*
X109150000Y-70560000D03*
%TD*%
D28*
%TO.C,D2*%
X102787100Y-52387600D03*
X104362100Y-52387600D03*
%TD*%
D20*
%TO.C,TP10*%
X103748800Y-62788800D03*
%TD*%
D29*
%TO.C,R14*%
X111930000Y-70470000D03*
X112950000Y-70470000D03*
%TD*%
%TO.C,R6*%
X103611500Y-51030000D03*
X104631500Y-51030000D03*
%TD*%
D20*
%TO.C,TP12*%
X107591500Y-50810000D03*
%TD*%
D22*
%TO.C,C7*%
X116391500Y-57230000D03*
X116391500Y-56270000D03*
%TD*%
D30*
%TO.C,L3*%
X105156000Y-66267600D03*
X105156000Y-70967600D03*
%TD*%
D31*
%TO.C,C8*%
X109600000Y-63960000D03*
X108640000Y-63960000D03*
%TD*%
D20*
%TO.C,TP9*%
X101518800Y-62788800D03*
%TD*%
D32*
%TO.C,REF\u002A\u002A*%
X124929000Y-45160000D03*
%TD*%
D33*
%TO.C,C19*%
X123140000Y-64520000D03*
X124690000Y-64520000D03*
%TD*%
D32*
%TO.C,REF\u002A\u002A*%
X96210000Y-73920000D03*
%TD*%
D18*
%TO.C,JP3*%
X103759000Y-54320000D03*
D19*
X103759000Y-55620000D03*
%TD*%
D22*
%TO.C,C15*%
X98602800Y-70330000D03*
X98602800Y-69370000D03*
%TD*%
D34*
%TO.C,R13*%
X112960000Y-71610000D03*
X111940000Y-71610000D03*
%TD*%
D35*
%TO.C,VR1*%
X110600000Y-65370000D03*
X111550000Y-65370000D03*
X112500000Y-65370000D03*
X112500000Y-67880000D03*
X111550000Y-67880000D03*
X110600000Y-67880000D03*
%TD*%
D36*
%TO.C,U1*%
X114811500Y-54490000D03*
X114811500Y-55290000D03*
X114811500Y-56090000D03*
X114811500Y-56890000D03*
X114811500Y-57690000D03*
X114811500Y-58490000D03*
X114811500Y-59290000D03*
X114811500Y-60090000D03*
D37*
X113449000Y-61452500D03*
X112649000Y-61452500D03*
X111849000Y-61452500D03*
X111049000Y-61452500D03*
X110249000Y-61452500D03*
X109449000Y-61452500D03*
X108649000Y-61452500D03*
X107849000Y-61452500D03*
D36*
X106486500Y-60090000D03*
X106486500Y-59290000D03*
X106486500Y-58490000D03*
X106486500Y-57690000D03*
X106486500Y-56890000D03*
X106486500Y-56090000D03*
X106486500Y-55290000D03*
X106486500Y-54490000D03*
D37*
X107849000Y-53127500D03*
X108649000Y-53127500D03*
X109449000Y-53127500D03*
X110249000Y-53127500D03*
X111049000Y-53127500D03*
X111849000Y-53127500D03*
X112649000Y-53127500D03*
X113449000Y-53127500D03*
%TD*%
D22*
%TO.C,C6*%
X109451500Y-51400000D03*
X109451500Y-50440000D03*
%TD*%
D27*
%TO.C,R17*%
X110951500Y-50410000D03*
X110951500Y-51430000D03*
%TD*%
D21*
%TO.C,C11*%
X109160000Y-67450000D03*
X109160000Y-68410000D03*
%TD*%
D38*
%TO.C,D6*%
X120340000Y-66302500D03*
X120340000Y-70302500D03*
%TD*%
M02*
