%TF.GenerationSoftware,KiCad,Pcbnew,10.0.3*%
%TF.CreationDate,2026-08-18T19:11:06+05:30*%
%TF.ProjectId,AG328X,41473332-3858-42e6-9b69-6361645f7063,rev?*%
%TF.SameCoordinates,Original*%
%TF.FileFunction,Paste,Bot*%
%TF.FilePolarity,Positive*%
%FSLAX46Y46*%
G04 Gerber Fmt 4.6, Leading zero omitted, Abs format (unit mm)*
G04 Created by KiCad (PCBNEW 10.0.3) date 2026-08-18 19:11:06*
%MOMM*%
%LPD*%
G01*
G04 APERTURE LIST*
G04 Aperture macros list*
%AMRoundRect*
0 Rectangle with rounded corners*
0 $1 Rounding radius*
0 $2 $3 $4 $5 $6 $7 $8 $9 X,Y pos of 4 corners*
0 Add a 4 corners polygon primitive as box body*
4,1,4,$2,$3,$4,$5,$6,$7,$8,$9,$2,$3,0*
0 Add four circle primitives for the rounded corners*
1,1,$1+$1,$2,$3*
1,1,$1+$1,$4,$5*
1,1,$1+$1,$6,$7*
1,1,$1+$1,$8,$9*
0 Add four rect primitives between the rounded corners*
20,1,$1+$1,$2,$3,$4,$5,0*
20,1,$1+$1,$4,$5,$6,$7,0*
20,1,$1+$1,$6,$7,$8,$9,0*
20,1,$1+$1,$8,$9,$2,$3,0*%
G04 Aperture macros list end*
%ADD10RoundRect,0.140000X-0.170000X0.140000X-0.170000X-0.140000X0.170000X-0.140000X0.170000X0.140000X0*%
%ADD11RoundRect,0.140000X0.170000X-0.140000X0.170000X0.140000X-0.170000X0.140000X-0.170000X-0.140000X0*%
%ADD12RoundRect,0.135000X0.185000X-0.135000X0.185000X0.135000X-0.185000X0.135000X-0.185000X-0.135000X0*%
%ADD13RoundRect,0.250000X0.650000X-0.325000X0.650000X0.325000X-0.650000X0.325000X-0.650000X-0.325000X0*%
%ADD14RoundRect,0.250000X-0.900000X1.500000X-0.900000X-1.500000X0.900000X-1.500000X0.900000X1.500000X0*%
%ADD15RoundRect,0.225000X-0.250000X0.225000X-0.250000X-0.225000X0.250000X-0.225000X0.250000X0.225000X0*%
%ADD16RoundRect,0.135000X-0.185000X0.135000X-0.185000X-0.135000X0.185000X-0.135000X0.185000X0.135000X0*%
%ADD17RoundRect,0.218750X-0.218750X-0.256250X0.218750X-0.256250X0.218750X0.256250X-0.218750X0.256250X0*%
%ADD18RoundRect,0.135000X-0.135000X-0.185000X0.135000X-0.185000X0.135000X0.185000X-0.135000X0.185000X0*%
%ADD19R,2.700000X2.050000*%
%ADD20RoundRect,0.140000X0.140000X0.170000X-0.140000X0.170000X-0.140000X-0.170000X0.140000X-0.170000X0*%
%ADD21RoundRect,0.225000X-0.225000X-0.250000X0.225000X-0.250000X0.225000X0.250000X-0.225000X0.250000X0*%
%ADD22RoundRect,0.135000X0.135000X0.185000X-0.135000X0.185000X-0.135000X-0.185000X0.135000X-0.185000X0*%
%ADD23RoundRect,0.073750X-0.221250X0.551250X-0.221250X-0.551250X0.221250X-0.551250X0.221250X0.551250X0*%
%ADD24RoundRect,0.137500X0.600000X0.137500X-0.600000X0.137500X-0.600000X-0.137500X0.600000X-0.137500X0*%
%ADD25RoundRect,0.137500X0.137500X0.600000X-0.137500X0.600000X-0.137500X-0.600000X0.137500X-0.600000X0*%
%ADD26RoundRect,0.250000X-0.650000X1.000000X-0.650000X-1.000000X0.650000X-1.000000X0.650000X1.000000X0*%
G04 APERTURE END LIST*
D10*
%TO.C,C4*%
X116391500Y-52480000D03*
X116391500Y-53440000D03*
%TD*%
D11*
%TO.C,C5*%
X116391500Y-59150000D03*
X116391500Y-58190000D03*
%TD*%
D12*
%TO.C,R18*%
X111916700Y-51432000D03*
X111916700Y-50412000D03*
%TD*%
D13*
%TO.C,C10*%
X100685600Y-70256400D03*
X100685600Y-67306400D03*
%TD*%
D14*
%TO.C,D9*%
X116090000Y-65860000D03*
X116090000Y-71260000D03*
%TD*%
D12*
%TO.C,R11*%
X109150000Y-65960000D03*
X109150000Y-64940000D03*
%TD*%
D15*
%TO.C,C9*%
X110540000Y-69860000D03*
X110540000Y-71410000D03*
%TD*%
D16*
%TO.C,R3*%
X116391500Y-54380000D03*
X116391500Y-55400000D03*
%TD*%
D10*
%TO.C,C14*%
X109150000Y-69600000D03*
X109150000Y-70560000D03*
%TD*%
D17*
%TO.C,D2*%
X102787100Y-52387600D03*
X104362100Y-52387600D03*
%TD*%
D18*
%TO.C,R14*%
X111930000Y-70470000D03*
X112950000Y-70470000D03*
%TD*%
%TO.C,R6*%
X103611500Y-51030000D03*
X104631500Y-51030000D03*
%TD*%
D11*
%TO.C,C7*%
X116391500Y-57230000D03*
X116391500Y-56270000D03*
%TD*%
D19*
%TO.C,L3*%
X105156000Y-66267600D03*
X105156000Y-70967600D03*
%TD*%
D20*
%TO.C,C8*%
X109600000Y-63960000D03*
X108640000Y-63960000D03*
%TD*%
D21*
%TO.C,C19*%
X123140000Y-64520000D03*
X124690000Y-64520000D03*
%TD*%
D11*
%TO.C,C15*%
X98602800Y-70330000D03*
X98602800Y-69370000D03*
%TD*%
D22*
%TO.C,R13*%
X112960000Y-71610000D03*
X111940000Y-71610000D03*
%TD*%
D23*
%TO.C,VR1*%
X110600000Y-65370000D03*
X111550000Y-65370000D03*
X112500000Y-65370000D03*
X112500000Y-67880000D03*
X111550000Y-67880000D03*
X110600000Y-67880000D03*
%TD*%
D24*
%TO.C,U1*%
X114811500Y-54490000D03*
X114811500Y-55290000D03*
X114811500Y-56090000D03*
X114811500Y-56890000D03*
X114811500Y-57690000D03*
X114811500Y-58490000D03*
X114811500Y-59290000D03*
X114811500Y-60090000D03*
D25*
X113449000Y-61452500D03*
X112649000Y-61452500D03*
X111849000Y-61452500D03*
X111049000Y-61452500D03*
X110249000Y-61452500D03*
X109449000Y-61452500D03*
X108649000Y-61452500D03*
X107849000Y-61452500D03*
D24*
X106486500Y-60090000D03*
X106486500Y-59290000D03*
X106486500Y-58490000D03*
X106486500Y-57690000D03*
X106486500Y-56890000D03*
X106486500Y-56090000D03*
X106486500Y-55290000D03*
X106486500Y-54490000D03*
D25*
X107849000Y-53127500D03*
X108649000Y-53127500D03*
X109449000Y-53127500D03*
X110249000Y-53127500D03*
X111049000Y-53127500D03*
X111849000Y-53127500D03*
X112649000Y-53127500D03*
X113449000Y-53127500D03*
%TD*%
D11*
%TO.C,C6*%
X109451500Y-51400000D03*
X109451500Y-50440000D03*
%TD*%
D16*
%TO.C,R17*%
X110951500Y-50410000D03*
X110951500Y-51430000D03*
%TD*%
D10*
%TO.C,C11*%
X109160000Y-67450000D03*
X109160000Y-68410000D03*
%TD*%
D26*
%TO.C,D6*%
X120340000Y-66302500D03*
X120340000Y-70302500D03*
%TD*%
M02*
