M48
; DRILL file KiCad 10.0.3 date 2026-08-18T19:11:10
; FORMAT={-:-/ absolute / metric / decimal}
; #@! TF.CreationDate,2026-08-18T19:11:10+05:30
; #@! TF.GenerationSoftware,Kicad,Pcbnew,10.0.3
; #@! TF.FileFunction,Plated,1,4,PTH
FMAT,2
METRIC
; #@! TA.AperFunction,Plated,PTH,ViaDrill
T1C0.300
; #@! TA.AperFunction,Plated,PTH,ComponentDrill
T2C0.600
; #@! TA.AperFunction,Plated,PTH,ComponentDrill
T3C0.800
; #@! TA.AperFunction,Plated,PTH,ComponentDrill
T4C0.850
; #@! TA.AperFunction,Plated,PTH,ComponentDrill
T5C0.950
%
G90
G05
T1
X98.633Y-60.343
X98.759Y-59.15
X101.239Y-68.5
X101.869Y-58.76
X101.943Y-59.787
X102.05Y-70.0
X102.229Y-65.96
X102.25Y-67.25
X102.311Y-51.588
X102.619Y-56.73
X102.75Y-59.662
X103.75Y-48.19
X105.009Y-59.555
X105.022Y-54.228
X105.099Y-56.265
X105.099Y-58.11
X105.279Y-54.942
X105.679Y-52.18
X107.139Y-67.715
X107.809Y-64.19
X107.919Y-57.96
X108.719Y-57.96
X109.451Y-49.777
X109.49Y-73.23
X109.519Y-57.96
X109.959Y-54.481
X110.319Y-57.97
X110.54Y-71.41
X111.579Y-54.53
X111.599Y-55.38
X111.639Y-60.1
X111.709Y-69.29
X111.719Y-57.96
X112.579Y-60.05
X112.773Y-57.96
X112.96Y-72.34
X113.379Y-55.33
X113.583Y-57.443
X113.613Y-59.995
X114.979Y-47.39
X115.439Y-61.36
X115.5Y-64.5
X116.25Y-63.61
X116.366Y-47.39
X116.389Y-61.37
X117.329Y-59.27
X117.414Y-56.45
X117.539Y-52.93
X117.624Y-63.624
X117.754Y-47.39
X118.409Y-56.41
X118.549Y-53.54
X119.141Y-47.39
X120.529Y-47.39
X121.579Y-57.09
X121.609Y-58.13
X123.25Y-63.0
X124.849Y-62.99
X124.899Y-50.68
T3
X95.43Y-44.26
X95.44Y-48.56
X97.43Y-44.26
X97.44Y-48.56
X99.43Y-44.26
X99.44Y-48.56
X99.74Y-74.74
X101.43Y-44.26
X101.44Y-48.56
X101.74Y-74.74
X103.43Y-44.26
X103.74Y-74.74
X105.43Y-44.26
X105.74Y-74.74
X107.43Y-44.26
X107.74Y-74.74
X109.43Y-44.26
X109.74Y-74.74
X111.43Y-44.26
X111.74Y-74.74
X113.43Y-44.26
X113.74Y-74.74
X115.43Y-44.26
X115.74Y-74.74
X117.43Y-44.26
X117.74Y-74.74
X119.43Y-44.26
X119.74Y-74.74
X121.43Y-44.26
X121.74Y-74.74
X123.74Y-74.74
X125.74Y-74.74
T4
X119.949Y-55.21
X119.949Y-60.29
T5
X123.729Y-66.52
X123.729Y-69.02
T2
G00X95.579Y-54.98
M15
G01X94.779Y-54.98
M16
G05
G00X95.579Y-63.62
M15
G01X94.779Y-63.62
M16
G05
G00X99.909Y-54.98
M15
G01X98.809Y-54.98
M16
G05
G00X99.909Y-63.62
M15
G01X98.809Y-63.62
M16
G05
M30
